<svg width="512" height="512" viewBox="0 0 512 512" fill="none" xmlns="http://www.w3.org/2000/svg">
  <rect width="512" height="512" fill="#ffffff"/>
  <circle cx="256" cy="240" r="186" fill="#207765"/>
  <path d="M310 134c-22-25-56-34-86-21-45 18-67 67-67 129 0 75 34 126 92 126 39 0 69-21 82-56v-73h-79v37h35v24c-8 15-21 23-39 23-31 0-49-31-49-81 0-52 17-84 50-94 17-5 37 0 51 17 9 11 14 24 16 39h36c-2-28-16-53-42-70z" fill="#ffffff"/>
  <path d="M250 215v-45c0-20 16-37 37-37s37 17 37 37v105c0 21-17 38-38 38-13 0-25-7-32-18" stroke="#77bd1f" stroke-width="20" stroke-linecap="round"/>
  <g transform="translate(222 222)">
    <circle cx="43" cy="40" r="14" fill="#f7d44a"/>
    <path d="M43 5v70M8 40h70M18 15l50 50M68 15L18 65" stroke="#f7d44a" stroke-width="7" stroke-linecap="round"/>
    <path d="M43 13v54M16 40h54M24 21l38 38M62 21L24 59" stroke="#2f8f78" stroke-width="4" stroke-linecap="round"/>
  </g>
  <text x="256" y="356" text-anchor="middle" font-family="Arial, Helvetica, sans-serif" font-size="29" letter-spacing="8" fill="#ffffff">GINESAT</text>
  <text x="256" y="402" text-anchor="middle" font-family="Arial, Helvetica, sans-serif" font-size="44" fill="#ffffff">663215621</text>
</svg>
